<?xml version="1.0" standalone="no"?>
<!DOCTYPE svg PUBLIC "-//W3C//DTD SVG 20010904//EN"
 "http://www.w3.org/TR/2001/REC-SVG-20010904/DTD/svg10.dtd">
<svg version="1.0" xmlns="http://www.w3.org/2000/svg"
 width="24px" height="24px" viewBox="0 0 180.000000 180.000000"
 preserveAspectRatio="xMidYMid meet">
<metadata>
Created by potrace 1.16, written by Peter Selinger 2001-2019
</metadata>
<g transform="translate(0.000000,180.000000) scale(0.100000,-0.100000)"
fill="#000000" stroke="none">
<path d="M675 1783 c-38 -8 -74 -19 -79 -24 -6 -5 -16 -9 -24 -9 -19 0 -124
-54 -187 -95 -62 -42 -172 -152 -223 -225 -46 -66 -103 -181 -134 -270 -18
-54 -22 -93 -26 -235 -3 -111 0 -189 8 -225 17 -78 65 -184 116 -258 l44 -63
-14 -77 c-8 -42 -20 -111 -26 -152 -6 -41 -15 -92 -20 -113 -7 -35 -6 -37 16
-37 13 0 57 9 97 21 39 11 88 25 107 29 19 5 53 14 75 20 103 29 118 31 149
19 110 -40 325 -73 421 -63 86 8 190 27 200 36 5 4 17 8 26 8 27 0 143 55 206
98 66 45 162 135 214 202 39 49 109 166 109 181 0 5 4 17 9 27 46 89 61 174
60 337 0 180 -21 273 -96 417 -82 160 -211 285 -383 372 -30 16 -63 32 -72 37
-10 5 -26 9 -36 9 -10 0 -22 4 -28 9 -39 38 -371 54 -509 24z m-40 -488 c39
-38 29 -82 -25 -110 -79 -41 -164 3 -140 72 22 62 119 85 165 38z m-10 -230
c-1 -27 -9 -102 -18 -165 -21 -141 -21 -140 1 -140 10 0 27 -6 38 -14 19 -14
19 -15 -2 -43 -42 -57 -201 -96 -223 -55 -6 11 -3 51 10 117 10 55 22 128 25
162 l7 62 -37 15 c-63 26 -41 60 59 95 33 11 78 20 100 18 l40 -2 0 -50z m247
16 c8 -30 10 -32 26 -18 30 27 105 57 146 57 30 0 45 -7 72 -34 l35 -35 51 32
c42 26 61 32 109 32 48 0 63 -4 81 -23 22 -21 23 -29 20 -140 -1 -64 -3 -135
-5 -157 -2 -35 1 -40 21 -43 30 -5 28 -32 -5 -65 -37 -34 -93 -57 -142 -57
-60 0 -64 17 -40 144 11 59 19 133 17 164 -3 51 -5 57 -26 60 -52 8 -76 -42
-93 -194 -6 -60 -18 -119 -25 -130 -15 -25 -101 -50 -134 -39 -25 8 -25 24 6
217 20 127 15 148 -32 148 -45 0 -69 -62 -84 -211 -5 -52 -12 -102 -15 -111
-8 -20 -47 -37 -99 -44 -70 -10 -73 1 -42 174 14 81 26 155 26 165 0 10 -14
23 -35 31 -62 26 -37 61 69 98 69 24 88 20 98 -21z"/>
</g>
</svg>
